<?xml version="1.0" encoding="UTF-8"?>
<svg version="1.1" xmlns="http://www.w3.org/2000/svg" width="400" height="117">
<path d="M0 0 C2.46018326 1.21561997 4.80199135 2.53006276 7.15625 3.9375 C8.48408182 4.61505802 9.8156847 5.28549778 11.15625 5.9375 C11.81625 5.339375 12.47625 4.74125 13.15625 4.125 C20.42939771 -1.17833687 27.36480638 -1.89300075 36.15625 -1.0625 C42.37033887 0.01362405 45.71172256 3.06143257 49.7109375 7.8046875 C55.75178976 16.71902624 54.31674625 28.96200487 54.28125 39.25 C54.28511719 40.39017578 54.28898437 41.53035156 54.29296875 42.70507812 C54.29167969 43.80916016 54.29039062 44.91324219 54.2890625 46.05078125 C54.28793457 47.03860596 54.28680664 48.02643066 54.28564453 49.04418945 C54.15625 51.9375 54.15625 51.9375 53.15625 57.9375 C47.54625 57.9375 41.93625 57.9375 36.15625 57.9375 C36.11886719 55.56433594 36.08148438 53.19117188 36.04296875 50.74609375 C35.99666102 48.42919073 35.94546127 46.11244338 35.89379883 43.7956543 C35.86069408 42.19451481 35.83261779 40.59326268 35.80981445 38.99194336 C35.77600018 36.68034183 35.72367549 34.36975922 35.66796875 32.05859375 C35.66157883 31.35101425 35.6551889 30.64343475 35.64860535 29.91441345 C35.50134921 24.85432399 34.46216658 21.35955888 32.15625 16.9375 C28.95480672 15.33677836 25.63764597 15.58334647 22.15625 15.9375 C19.20917754 16.8219609 19.20917754 16.8219609 17.15625 18.9375 C15.40887094 23.89560137 14.86836169 28.38486479 14.7421875 33.62109375 C14.72282135 34.32146255 14.7034552 35.02183136 14.6835022 35.74342346 C14.62430109 37.95382981 14.57756275 40.16428995 14.53125 42.375 C14.49301524 43.88478681 14.45396042 45.3945531 14.4140625 46.90429688 C14.3186503 50.58184199 14.23440301 54.25954294 14.15625 57.9375 C11.34368719 57.96434312 8.53137759 57.98426188 5.71875 58 C4.51508789 58.01256836 4.51508789 58.01256836 3.28710938 58.02539062 C1.24329779 58.0340143 -0.80058902 57.9897815 -2.84375 57.9375 C-3.84375 56.9375 -3.84375 56.9375 -3.92553711 54.19702148 C-3.9075708 52.99634033 -3.88960449 51.79565918 -3.87109375 50.55859375 C-3.85884766 49.24439453 -3.84660156 47.93019531 -3.83398438 46.57617188 C-3.8093385 44.48517678 -3.78156219 42.39433532 -3.74780273 40.3034668 C-3.09487112 28.1067212 -3.09487112 28.1067212 -7.1953125 16.96875 C-10.49256343 14.90601482 -14.12916469 15.22716702 -17.84375 15.9375 C-21.12550318 18.46718474 -22.53618777 20.01481331 -23.84375 23.9375 C-23.99697359 26.52080229 -24.10081889 29.08242239 -24.16015625 31.66796875 C-24.18093735 32.41838943 -24.20171844 33.16881012 -24.22312927 33.94197083 C-24.28844926 36.33622184 -24.34742792 38.73058139 -24.40625 41.125 C-24.44945193 42.74936013 -24.49306676 44.37370933 -24.53710938 45.99804688 C-24.6448889 49.97775502 -24.74409215 53.95754701 -24.84375 57.9375 C-30.78375 57.9375 -36.72375 57.9375 -42.84375 57.9375 C-42.84375 38.7975 -42.84375 19.6575 -42.84375 -0.0625 C-37.23375 -0.0625 -31.62375 -0.0625 -25.84375 -0.0625 C-25.51375 1.2575 -25.18375 2.5775 -24.84375 3.9375 C-24.26109375 3.5765625 -23.6784375 3.215625 -23.078125 2.84375 C-15.54916336 -1.4179264 -8.34165728 -3.11666316 0 0 Z " fill="#253550" transform="translate(121.84375,38.0625)"/>
<path d="M0 0 C7.30341615 6.64456671 11.64135268 15.06762059 12.23828125 24.94140625 C12.53933917 37.39548368 11.27476914 47.12652457 2.9765625 56.99609375 C-2.96108039 63.01587795 -9.75337798 66.30304168 -18 68 C-18.99 68 -19.98 68 -21 68 C-21 72.95 -21 77.9 -21 83 C-26.28 83 -31.56 83 -37 83 C-37 78.05 -37 73.1 -37 68 C-38.464375 67.773125 -39.92875 67.54625 -41.4375 67.3125 C-49.40899881 65.70916738 -55.62874454 62.13857766 -61 56 C-61.680625 55.278125 -62.36125 54.55625 -63.0625 53.8125 C-69.47210809 44.5082302 -70.86346784 34.05482066 -70 23 C-67.81698559 11.96018425 -63.4653268 3.81314519 -54.20703125 -2.68359375 C-37.73209543 -12.51023689 -15.30320294 -11.72273085 0 0 Z M-47 11 C-52.76345255 17.24374026 -53.87458186 23.72240277 -54 32 C-53.49033033 38.95415951 -50.83672686 44.95122457 -46 50 C-38.11658369 55.48155303 -27.59475099 55.14159523 -18.47265625 53.5625 C-12.41364872 51.70176832 -9.03280146 47.49028174 -5.96484375 42.22265625 C-2.91836294 35.52039847 -2.80588985 27.37198392 -4.7265625 20.33984375 C-7.18037934 14.3648995 -10.428489 10.44004616 -16.125 7.25 C-26.22588178 3.41560887 -38.54324788 3.95270657 -47 11 Z " fill="#027E37" transform="translate(254,34)"/>
<path d="M0 0 C2.51858011 1.82957853 4.79293148 3.80712484 7 6 C7.32871094 5.4225 7.65742187 4.845 7.99609375 4.25 C11.83495146 -1.74236325 11.83495146 -1.74236325 15.40234375 -2.53125 C17.64930383 -2.5028524 19.78224595 -2.35484065 22 -2 C23.12256955 1.36770866 22.82806914 2.57124897 22.0769043 5.96630859 C20.92190744 11.88041187 20.72590138 17.5276794 20.76953125 23.5390625 C20.76998947 24.58653656 20.77044769 25.63401062 20.7709198 26.71322632 C20.77391633 28.90306751 20.78172345 31.09290708 20.79418945 33.28271484 C20.8126413 36.65079177 20.81469744 40.01859615 20.81445312 43.38671875 C20.81936197 45.52083573 20.8251875 47.65495085 20.83203125 49.7890625 C20.83314407 50.79933502 20.8342569 51.80960754 20.83540344 52.85049438 C20.84178329 53.77591034 20.84816315 54.70132629 20.85473633 55.65478516 C20.85854813 56.47210114 20.86235992 57.28941711 20.86628723 58.13150024 C20.79605627 60.01433312 20.79605627 60.01433312 22 61 C24.32817964 61.36760731 26.6618385 61.70241581 29 62 C29 65.3 29 68.6 29 72 C24.16939706 74.73734167 19.22871196 74.35240161 14 73 C11.0625 70.625 11.0625 70.625 9 68 C8.01073253 66.98938144 7.0129016 65.98692976 6 65 C5.61070313 65.39832031 5.22140625 65.79664062 4.8203125 66.20703125 C-1.07787375 71.79264081 -7.46805523 74.03596566 -15.5625 74.375 C-24.43042478 74.03031034 -32.06433348 70.31351356 -38.125 63.875 C-44.85667458 55.37917861 -45.63585726 46.61974136 -45.5 36.0625 C-45.51546875 34.86431641 -45.5309375 33.66613281 -45.546875 32.43164062 C-45.49734954 21.07173712 -43.11712022 12.16998641 -35.15234375 3.87890625 C-25.72919207 -4.34711182 -11.09706313 -5.68386161 0 0 Z M-22 16 C-27.58961152 22.34496443 -28.39954234 30.33498422 -28.18359375 38.515625 C-27.76775247 44.14275375 -26.85766551 48.52588741 -24 53.4375 C-19.90285009 56.93714889 -16.35290444 57.88881207 -11 58 C-6.22517471 57.27113259 -2.97027406 55.9460172 0.5 52.5625 C3.61128687 47.24738493 3.25018047 41.7576025 3.3125 35.75 C3.35600586 34.37521484 3.35600586 34.37521484 3.40039062 32.97265625 C3.4578494 26.77594842 2.61231571 22.12801645 -1 17 C-4.44675347 13.56015385 -7.75822785 13.26719557 -12.46484375 12.94140625 C-16.47951015 13.03419515 -18.56020521 13.86732723 -22 16 Z " fill="#017E37" transform="translate(45,31)"/>
<path d="M0 0 C6.21532644 3.63652001 9.20587664 7.07404073 11.11328125 13.953125 C12.92679245 21.52134386 12.88380662 28.94474375 12.78125 36.67895508 C12.749552 39.09667079 12.74021359 41.51373585 12.734375 43.93164062 C12.72522389 45.46875806 12.71485424 47.00586883 12.703125 48.54296875 C12.69675018 49.62713326 12.69675018 49.62713326 12.69024658 50.73320007 C12.61731776 55.75768224 12.61731776 55.75768224 11.5 56.875 C8.65664952 56.97486975 5.84302837 57.01377881 3 57 C1.80310547 57.00580078 1.80310547 57.00580078 0.58203125 57.01171875 C-5.37339233 57.00160767 -5.37339233 57.00160767 -6.5 55.875 C-6.64782288 53.25743024 -6.73504422 50.6629018 -6.78125 48.04296875 C-6.79965942 47.25481277 -6.81806885 46.4666568 -6.83703613 45.65461731 C-6.89596468 43.1239897 -6.94866936 40.59329245 -7 38.0625 C-7.06774422 34.74334973 -7.14150882 31.42440996 -7.21875 28.10546875 C-7.23232544 27.34179489 -7.24590088 26.57812103 -7.2598877 25.79130554 C-7.3397904 22.36331096 -7.43502971 19.15452641 -8.5 15.875 C-12.84650693 14.66270895 -17.01380522 14.27524134 -21.5 14.875 C-24.37029869 16.66893668 -25.99131638 17.85763276 -27.5 20.875 C-27.64330996 23.13933428 -27.7265629 25.40757562 -27.78125 27.67578125 C-27.79965942 28.34917038 -27.81806885 29.02255951 -27.83703613 29.71635437 C-27.89581592 31.87331359 -27.94857644 34.03035364 -28 36.1875 C-28.06795318 39.01708294 -28.14172824 41.84643239 -28.21875 44.67578125 C-28.26418945 46.56550659 -28.26418945 46.56550659 -28.31054688 48.4934082 C-28.47352823 51.40249939 -28.83415614 54.04550056 -29.5 56.875 C-32.31256281 56.90184312 -35.12487241 56.92176188 -37.9375 56.9375 C-38.73994141 56.94587891 -39.54238281 56.95425781 -40.36914062 56.96289062 C-42.41295221 56.9715143 -44.45683902 56.9272815 -46.5 56.875 C-47.5 55.875 -47.5 55.875 -47.62025452 53.59080505 C-47.61803391 52.58042679 -47.61581329 51.57004852 -47.61352539 50.52905273 C-47.61344986 49.3879454 -47.61337433 48.24683807 -47.61329651 47.07115173 C-47.60813522 45.8295076 -47.60297394 44.58786346 -47.59765625 43.30859375 C-47.5962413 42.04483414 -47.59482635 40.78107452 -47.59336853 39.47901917 C-47.58870582 36.11375111 -47.5797148 32.7485501 -47.56866455 29.38330078 C-47.55844846 25.9515033 -47.55387049 22.51969891 -47.54882812 19.08789062 C-47.5377738 12.35023936 -47.52049637 5.61262889 -47.5 -1.125 C-41.89 -1.125 -36.28 -1.125 -30.5 -1.125 C-29.84 0.195 -29.18 1.515 -28.5 2.875 C-27.96375 2.42125 -27.4275 1.9675 -26.875 1.5 C-19.1231786 -3.8038778 -8.3636558 -3.89385771 0 0 Z " fill="#253650" transform="translate(324.5,39.125)"/>
<path d="M0 0 C5.75140541 6.08972337 6.702176 12.31152027 6.515625 20.4375 C6.50996521 21.38061035 6.50430542 22.3237207 6.49847412 23.29541016 C6.47624585 26.28080978 6.4260756 29.26496874 6.375 32.25 C6.35491746 34.28513881 6.33666978 36.32029659 6.3203125 38.35546875 C6.27642557 43.32078391 6.20749314 48.28518227 6.125 53.25 C0.845 53.25 -4.435 53.25 -9.875 53.25 C-10.37 51.27 -10.37 51.27 -10.875 49.25 C-11.37 49.70375 -11.865 50.1575 -12.375 50.625 C-18.2992098 54.47573637 -25.5372087 55.1230146 -32.359375 53.75 C-37.8205398 52.32815828 -41.28879726 50.81425803 -44.875 46.25 C-45.473125 45.528125 -46.07125 44.80625 -46.6875 44.0625 C-48.94908384 38.70611721 -48.59509393 33.29658276 -46.6875 27.875 C-42.64267552 22.01697834 -37.60265559 19.86793847 -30.875 18.25 C-27.33971908 17.92382431 -23.85863546 17.96103317 -20.3125 18.0625 C-18.94254883 18.08280273 -18.94254883 18.08280273 -17.54492188 18.10351562 C-15.32096741 18.13844685 -13.09832048 18.18748414 -10.875 18.25 C-12.98826526 13.54157376 -12.98826526 13.54157376 -16.875 10.25 C-25.33556983 9.22951051 -32.30879166 10.42419714 -39.875 14.25 C-40.93599328 12.51164943 -41.97326483 10.75880196 -43 9 C-43.58007812 8.02546875 -44.16015625 7.0509375 -44.7578125 6.046875 C-45.875 3.25 -45.875 3.25 -45.35546875 1.02734375 C-43.46293707 -1.24469296 -41.82965768 -1.92107776 -39.0625 -2.9375 C-38.21042969 -3.26105469 -37.35835938 -3.58460937 -36.48046875 -3.91796875 C-23.9016867 -7.93488116 -11.21142653 -6.82434658 0 0 Z M-28.875 31.25 C-30.23578035 33.77372901 -30.23578035 33.77372901 -30.875 36.25 C-27.98568728 39.8616409 -26.59668143 41.14690265 -21.9375 41.8125 C-17.74595054 41.55052816 -15.10973588 39.9324639 -11.875 37.25 C-10.52060332 34.54120665 -10.80998549 32.24066732 -10.875 29.25 C-12.9372048 29.195652 -14.99982816 29.15705039 -17.0625 29.125 C-18.21105469 29.10179687 -19.35960937 29.07859375 -20.54296875 29.0546875 C-23.834443 29.24762268 -25.98186215 29.69860724 -28.875 31.25 Z " fill="#263651" transform="translate(393.875,42.75)"/>
<path d="M0 0 C8.35616438 -1.21055098 8.35616438 -1.21055098 11.94140625 1.4296875 C13.76659009 3.53860061 15.37894055 5.73051678 17 8 C18.47583345 9.77361223 19.95502548 11.54443495 21.4375 13.3125 C25 17.61859583 25 17.61859583 25 21 C19.39 21 13.78 21 8 21 C6.46952913 17.87939078 4.9503624 14.75412996 3.4375 11.625 C2.99986328 10.73554688 2.56222656 9.84609375 2.11132812 8.9296875 C1.70205078 8.07890625 1.29277344 7.228125 0.87109375 6.3515625 C0.48880615 5.56604004 0.10651855 4.78051758 -0.28735352 3.97119141 C-0.52252686 3.32069824 -0.7577002 2.67020508 -1 2 C-0.67 1.34 -0.34 0.68 0 0 Z " fill="#037E38" transform="translate(361,10)"/>
<path d="M0 0 C4.28044245 -0.94124913 7.74423321 -1.14729197 12 0 C16.11007914 3.36484501 19.02529208 7.95736898 21.91455078 12.36523438 C22.81934302 13.72791742 23.80511406 15.03638873 24.80859375 16.328125 C26 18 26 18 26 20 C20.39 20 14.78 20 9 20 C7.68253667 17.41909233 6.37090383 14.83549542 5.0625 12.25 C4.68931641 11.52039062 4.31613281 10.79078125 3.93164062 10.0390625 C3.57392578 9.33007812 3.21621094 8.62109375 2.84765625 7.890625 C2.51773682 7.24125977 2.18781738 6.59189453 1.84790039 5.92285156 C0.98547884 3.96706921 0.45625821 2.08459306 0 0 Z " fill="#057F39" transform="translate(211,0)"/>
<path d="M0 0 C1.13684188 1.12091973 2.21324023 2.30287018 3.26953125 3.5 C2.93953125 4.16 2.60953125 4.82 2.26953125 5.5 C1.52123047 4.72076172 1.52123047 4.72076172 0.7578125 3.92578125 C-9.52512765 -6.06177822 -19.72369041 -8.20907826 -33.60693359 -8.10302734 C-41.28468644 -7.822798 -48.02441679 -6.48738224 -54.73046875 -2.5 C-55.06046875 -1.84 -55.39046875 -1.18 -55.73046875 -0.5 C-56.35695312 -0.21382812 -56.9834375 0.07234375 -57.62890625 0.3671875 C-60.20205793 1.75420235 -60.94890804 3.09319073 -62.35546875 5.625 C-63.58203125 7.8203125 -63.58203125 7.8203125 -64.73046875 9.5 C-65.39046875 9.5 -66.05046875 9.5 -66.73046875 9.5 C-70.2539388 23.59388022 -71.10368648 36.28639068 -64.02734375 49.3984375 C-61.7217163 53.13466512 -59.8992061 55.11042088 -55.73046875 56.5 C-54.73046875 57.5 -53.73046875 58.5 -52.73046875 59.5 C-48.56684288 62.62271941 -44.04000801 63.57514913 -39.05859375 64.75390625 C-38.2903125 65.00011719 -37.52203125 65.24632813 -36.73046875 65.5 C-35.20411952 68.55269846 -35.89252431 71.25845689 -36.16796875 74.625 C-36.26980469 75.90632813 -36.37164062 77.18765625 -36.4765625 78.5078125 C-36.56035156 79.49523437 -36.64414063 80.48265625 -36.73046875 81.5 C-37.39046875 81.5 -38.05046875 81.5 -38.73046875 81.5 C-38.73046875 76.55 -38.73046875 71.6 -38.73046875 66.5 C-40.19484375 66.273125 -41.65921875 66.04625 -43.16796875 65.8125 C-51.13946756 64.20916738 -57.35921329 60.63857766 -62.73046875 54.5 C-63.41109375 53.778125 -64.09171875 53.05625 -64.79296875 52.3125 C-71.20257684 43.0082302 -72.59393659 32.55482066 -71.73046875 21.5 C-69.54745434 10.46018425 -65.19579555 2.31314519 -55.9375 -4.18359375 C-38.81952746 -14.39378268 -15.21368183 -13.18748041 0 0 Z " fill="#207749" transform="translate(255.73046875,35.5)"/>
<path d="M0 0 C1.8253125 0.0309375 1.8253125 0.0309375 3.6875 0.0625 C0.72068557 1.71680666 -1.84051691 2.42658981 -5.1875 2.9375 C-11.05825655 4.05985052 -14.63590562 6.10647322 -18.5625 10.6875 C-22.51860132 18.31712397 -23.29734342 26.70714119 -21.3125 35.0625 C-19.15040032 40.73501981 -16.46875625 45.03046578 -10.875 47.6875 C-3.03830273 50.1890781 6.4334679 50.42954235 14.3125 47.9375 C19.81854858 44.87858412 23.11102358 40.66715153 25.1953125 34.6953125 C26.33714709 28.58740369 25.89014794 22.24701495 25.6875 16.0625 C26.3475 16.3925 27.0075 16.7225 27.6875 17.0625 C29.96448499 35.87154404 29.96448499 35.87154404 25.5625 41.5 C23.59765625 43.46875 23.59765625 43.46875 21.6875 45.0625 C20.800625 45.866875 19.91375 46.67125 19 47.5 C12.42694869 51.94125088 5.51163936 52.76579343 -2.3125 52.0625 C-8.34616798 50.82482452 -13.51925744 48.97277682 -18.3125 45.0625 C-18.3125 44.4025 -18.3125 43.7425 -18.3125 43.0625 C-18.9725 43.0625 -19.6325 43.0625 -20.3125 43.0625 C-20.3125 42.4025 -20.3125 41.7425 -20.3125 41.0625 C-20.9725 40.7325 -21.6325 40.4025 -22.3125 40.0625 C-25.94886927 29.74866972 -25.74782555 18.46484824 -21.0703125 8.53515625 C-17.55463429 3.58976891 -12.49495281 1.82511542 -6.76953125 0.453125 C-4.45861317 0.08572944 -2.33565849 -0.03958743 0 0 Z " fill="#1E7749" transform="translate(223.3125,37.9375)"/>
<path d="M0 0 C5.32602148 -0.21527332 9.14962601 0.022026 13.671875 3.14453125 C18.50919233 7.84747866 19.68014652 13.83031135 19.97265625 20.36328125 C19.99201039 21.79023868 19.99568024 23.21748735 19.984375 24.64453125 C19.97591553 25.76263184 19.97591553 25.76263184 19.96728516 26.90332031 C19.81224454 33.90010381 18.9321285 38.54523972 14.171875 44.01953125 C9.8961364 47.13592779 4.88920651 48.10012843 -0.328125 48.14453125 C-5.68900263 46.77086211 -9.41344415 43.85286186 -12.328125 39.14453125 C-14.44107442 34.07497276 -14.63186317 29.60323944 -14.578125 24.20703125 C-14.58585938 23.43423828 -14.59359375 22.66144531 -14.6015625 21.86523438 C-14.5747069 13.92269129 -12.97855443 6.97669963 -7.328125 1.14453125 C-4.80281104 0.06225384 -2.71320209 0.16843704 0 0 Z M-7.328125 4.14453125 C-12.91773652 10.48949568 -13.72766734 18.47951547 -13.51171875 26.66015625 C-13.09587747 32.287285 -12.18579051 36.67041866 -9.328125 41.58203125 C-5.23097509 45.08168014 -1.68102944 46.03334332 3.671875 46.14453125 C8.44670029 45.41566384 11.70160094 44.09054845 15.171875 40.70703125 C18.28316187 35.39191618 17.92205547 29.90213375 17.984375 23.89453125 C18.02788086 22.51974609 18.02788086 22.51974609 18.07226562 21.1171875 C18.1297244 14.92047967 17.28419071 10.2725477 13.671875 5.14453125 C10.22512153 1.7046851 6.91364715 1.41172682 2.20703125 1.0859375 C-1.80763515 1.1787264 -3.88833021 2.01185848 -7.328125 4.14453125 Z " fill="#1F7848" transform="translate(30.328125,42.85546875)"/>
<path d="M0 0 C0.33 0 0.66 0 1 0 C1.01981934 0.94319092 1.03963867 1.88638184 1.06005859 2.8581543 C1.13834766 6.37143034 1.22504698 9.88429264 1.31738281 13.3972168 C1.35556704 14.91503978 1.39043808 16.43295001 1.421875 17.95092773 C1.46775628 20.13817431 1.52571029 22.32482582 1.5859375 24.51171875 C1.6173584 25.82615967 1.6487793 27.14060059 1.68115234 28.49487305 C1.97855432 31.76424534 2.59117427 34.06123896 4 37 C7.465 37.495 7.465 37.495 11 38 C11 41.3 11 44.6 11 48 C6.16330483 50.74079393 1.23512673 50.34322331 -4 49 C-7.34083843 46.42477038 -9.40896561 43.90526623 -11 40 C-10.01 40.33 -9.02 40.66 -8 41 C-7.690625 41.825 -7.38125 42.65 -7.0625 43.5 C-6.711875 44.325 -6.36125 45.15 -6 46 C-2.80213653 47.22206682 0.36171249 47.10283676 3.75 47.0625 C5.22726563 47.04896484 5.22726563 47.04896484 6.734375 47.03515625 C7.85585937 47.01775391 7.85585937 47.01775391 9 47 C9 44.69 9 42.38 9 40 C7.88625 39.9175 6.7725 39.835 5.625 39.75 C2 39 2 39 0.78564453 37.45605469 C-0.33109447 33.96494394 -0.24553846 30.57772425 -0.1953125 26.953125 C-0.1924826 26.18192322 -0.18965271 25.41072144 -0.18673706 24.6161499 C-0.17557013 22.16060668 -0.15047229 19.7054324 -0.125 17.25 C-0.11496568 15.58203653 -0.10584061 13.91406732 -0.09765625 12.24609375 C-0.07564225 8.16392103 -0.04113667 4.082023 0 0 Z " fill="#1C7444" transform="translate(63,55)"/>
<path d="M0 0 C1.85447352 3.61787915 3.42964266 7.32621744 5 11.07421875 C5.84827053 13.16900731 5.84827053 13.16900731 8 14 C8.33 14.7425 8.66 15.485 9 16.25 C12.16639544 20.60379374 15.8788278 22.46807951 21 24 C28.46982491 24.95423666 35.93553688 24.73144614 43 22 C43 21.34 43 20.68 43 20 C45.375 18.3125 45.375 18.3125 48 17 C48.66 17.33 49.32 17.66 50 18 C43.84654161 24.29608822 37.24308553 27.00617966 28.4375 27.375 C20.46673835 27.06518241 13.11451766 24.04392544 7.40625 18.43359375 C3.05874999 13.67052389 0.17279053 9.16782634 -0.1875 2.5625 C-0.125625 1.716875 -0.06375 0.87125 0 0 Z " fill="#1D764B" transform="translate(1,78)"/>
<path d="M0 0 C1.23556641 0.01740234 1.23556641 0.01740234 2.49609375 0.03515625 C3.32238281 0.04417969 4.14867188 0.05320312 5 0.0625 C5.63808594 0.07410156 6.27617188 0.08570312 6.93359375 0.09765625 C8.00400498 3.30888994 7.87238253 4.70165033 7.375 7.984375 C7.23642578 8.92216797 7.09785156 9.85996094 6.95507812 10.82617188 C6.72788086 12.29086914 6.72788086 12.29086914 6.49609375 13.78515625 C6.34849609 14.77322266 6.20089844 15.76128906 6.04882812 16.77929688 C5.68334718 19.21976638 5.31136804 21.6590646 4.93359375 24.09765625 C4.27359375 24.09765625 3.61359375 24.09765625 2.93359375 24.09765625 C3.07601023 21.74323909 3.22244183 19.38918141 3.37109375 17.03515625 C3.45230469 15.72417969 3.53351562 14.41320312 3.6171875 13.0625 C3.91257624 9.36102387 4.36624763 5.76395177 4.93359375 2.09765625 C1.5650686 2.04114535 1.5650686 2.04114535 -2.06640625 3.09765625 C-3.92081545 5.32080965 -4.85199869 7.42595962 -6.06640625 10.09765625 C-6.39640625 9.10765625 -6.72640625 8.11765625 -7.06640625 7.09765625 C-2.88975255 0.13656676 -2.88975255 0.13656676 0 0 Z " fill="#216E45" transform="translate(60.06640625,28.90234375)"/>
<path d="M0 0 C0.33 0.66 0.66 1.32 1 2 C2.64363134 2.72159424 4.31050386 3.39351421 6 4 C6 4.66 6 5.32 6 6 C6.99 6.33 7.98 6.66 9 7 C9 7.66 9 8.32 9 9 C4.38 9 -0.24 9 -5 9 C-5.33 7.35 -5.66 5.7 -6 4 C-5.01 4.495 -5.01 4.495 -4 5 C-0.75150023 3.27773504 -0.75150023 3.27773504 0 0 Z " fill="#027F37" transform="translate(225,9)"/>
<path d="M0 0 C0.92941406 -0.00257812 1.85882813 -0.00515625 2.81640625 -0.0078125 C5.17897476 0.11190036 7.17780763 0.45506767 9.4375 1.125 C9.4375 1.785 9.4375 2.445 9.4375 3.125 C8.21933594 3.10179687 7.00117187 3.07859375 5.74609375 3.0546875 C4.12240201 3.0359165 2.49870358 3.01771773 0.875 3 C-0.32479492 2.97486328 -0.32479492 2.97486328 -1.54882812 2.94921875 C-6.61214999 2.90788551 -10.80277338 3.33619341 -15.5625 5.125 C-15.8925 5.785 -16.2225 6.445 -16.5625 7.125 C-18.05310299 8.3887721 -19.54579428 9.6504891 -21.0625 10.8828125 C-22.66332649 12.20849694 -24.13322521 13.61632106 -25.5625 15.125 C-24.16477302 9.84469809 -20.82216377 7.21726638 -16.5625 4.125 C-11.0593756 0.93318785 -6.3128241 -0.01756001 0 0 Z " fill="#1A7847" transform="translate(30.5625,27.875)"/>
<path d="M0 0 C2.67710191 1.33855096 2.95129094 2.72058088 4.125 5.4375 C4.47820312 6.24058594 4.83140625 7.04367188 5.1953125 7.87109375 C6 10 6 10 6 12 C10.62 12 15.24 12 20 12 C19.01 11.01 18.02 10.02 17 9 C17 8.34 17 7.68 17 7 C18.875 7.6875 18.875 7.6875 21 9 C21.66 10.65 22.32 12.3 23 14 C17.39 14 11.78 14 6 14 C0 2.25 0 2.25 0 0 Z " fill="#217E4F" transform="translate(214,6)"/>
<path d="M0 0 C-4.10384998 2.73589999 -8.54183908 4.10786227 -13.1640625 5.78125 C-16.11232743 6.68700418 -16.11232743 6.68700418 -17 9 C-17.62390625 9.28617188 -18.2478125 9.57234375 -18.890625 9.8671875 C-21.46635163 11.2504481 -22.29392864 12.61732154 -23.75 15.125 C-24.17796875 15.84945312 -24.6059375 16.57390625 -25.046875 17.3203125 C-25.36140625 17.87460937 -25.6759375 18.42890625 -26 19 C-26.66 18.67 -27.32 18.34 -28 18 C-25.62660236 10.95321112 -20.38236472 6.78109332 -13.9140625 3.375 C-9.13283318 1.29723121 -5.27400929 -0.30797135 0 0 Z " fill="#1C7144" transform="translate(217,26)"/>
<path d="M0 0 C1.66666667 1.66666667 3.33333333 3.33333333 5 5 C5.598125 5.53625 6.19625 6.0725 6.8125 6.625 C8 8 8 8 8 11 C2.39 11 -3.22 11 -9 11 C-9.99 9.02 -10.98 7.04 -12 5 C-11.67 4.34 -11.34 3.68 -11 3 C-10.63261719 3.80824219 -10.26523437 4.61648437 -9.88671875 5.44921875 C-8.2163444 8.2777846 -8.2163444 8.2777846 -5.08203125 8.70703125 C-4.00308594 8.74183594 -2.92414063 8.77664062 -1.8125 8.8125 C-0.18248047 8.88404297 -0.18248047 8.88404297 1.48046875 8.95703125 C2.31191406 8.97121094 3.14335937 8.98539063 4 9 C2.88145414 5.27385847 2.88145414 5.27385847 0 3 C0 2.01 0 1.02 0 0 Z " fill="#24724A" transform="translate(378,20)"/>
<path d="M0 0 C3.61016235 0.02582377 4.80755998 0.04111427 7.8125 2.1875 C9.1875 4.3125 9.1875 4.3125 9.1875 6.3125 C8.1975 5.9825 7.2075 5.6525 6.1875 5.3125 C5.8575 4.6525 5.5275 3.9925 5.1875 3.3125 C2.5475 3.3125 -0.0925 3.3125 -2.8125 3.3125 C-2.296875 4.405625 -1.78125 5.49875 -1.25 6.625 C0.1875 10.3125 0.1875 10.3125 -0.8125 13.3125 C-2.4625 9.3525 -4.1125 5.3925 -5.8125 1.3125 C-4.16284831 -0.33715169 -2.2648645 0.06300502 0 0 Z " fill="#22744C" transform="translate(365.8125,9.6875)"/>
<path d="M0 0 C0.66 0 1.32 0 2 0 C2.64995297 1.41478135 3.29478722 2.83191487 3.9375 4.25 C4.47697266 5.43335938 4.47697266 5.43335938 5.02734375 6.640625 C6.52338301 10.26957164 7.12567436 13.40558923 7.09765625 17.328125 C7.09443359 18.12734375 7.09121094 18.9265625 7.08789062 19.75 C7.07951172 20.575 7.07113281 21.4 7.0625 22.25 C7.05798828 23.09046875 7.05347656 23.9309375 7.04882812 24.796875 C7.03707961 26.86461401 7.01914522 28.93231624 7 31 C6.67 31 6.34 31 6 31 C5.97421875 30.06800781 5.9484375 29.13601562 5.921875 28.17578125 C5.52287077 19.20725439 4.05824856 11.51212516 1 3 C0.67 2.01 0.34 1.02 0 0 Z " fill="#1C7146" transform="translate(259,42)"/>
<path d="M0 0 C0.9861483 2.6135955 1.08441302 3.7594807 0.14453125 6.4375 C-4.29774731 14.98334966 -4.29774731 14.98334966 -8 18 C-7.29032291 14.30967915 -5.72556325 11.323307 -4 8 C-3.26872972 6.54272037 -2.53960323 5.08436323 -1.8125 3.625 C-0.90625 1.8125 -0.90625 1.8125 0 0 Z " fill="#157045" transform="translate(264,73)"/>
<path d="M0 0 C2.67200728 1.63768188 3.83969229 2.41706288 4.6875 5.5 C4.790625 6.325 4.89375 7.15 5 8 C5.33 8.99 5.66 9.98 6 11 C9.00847418 12.22520264 9.00847418 12.22520264 12 13 C12 13.66 12 14.32 12 15 C6.84415796 13.3795925 3.58288442 10.4873898 0.6875 5.9375 C0 4 0 4 0 0 Z " fill="#283142" transform="translate(346,80)"/>
<path d="M0 0 C5.66710699 1.31793186 7.66437233 3.48709197 11 8 C7.94736336 8.98120464 6.05263664 8.98120464 3 8 C3 7.34 3 6.68 3 6 C3.66 5.67 4.32 5.34 5 5 C3.35 3.35 1.7 1.7 0 0 Z " fill="#157640" transform="translate(41,30)"/>
<path d="M0 0 C5.6253008 0.49344744 10.00482563 1.30260584 15 4 C16.4375 6.1875 16.4375 6.1875 17 8 C16.05125 7.38125 15.1025 6.7625 14.125 6.125 C9.66873142 3.54457343 5.04008752 2.77071761 0 2 C0 1.34 0 0.68 0 0 Z " fill="#1E7D4C" transform="translate(228,38)"/>
<path d="M0 0 C0.66 0.33 1.32 0.66 2 1 C-5.54784218 7.91704269 -5.54784218 7.91704269 -10 9 C-11.32 8.67 -12.64 8.34 -14 8 C-11.03 7.01 -8.06 6.02 -5 5 C-5 4.34 -5 3.68 -5 3 C-2.625 1.3125 -2.625 1.3125 0 0 Z " fill="#197142" transform="translate(49,95)"/>
<path d="M0 0 C0.66 0.33 1.32 0.66 2 1 C1.34 2.65 0.68 4.3 0 6 C-0.33 5.34 -0.66 4.68 -1 4 C-1.66 4.66 -2.32 5.32 -3 6 C-4.33333333 7.33333333 -5.66666667 8.66666667 -7 10 C-6.84518205 7.29068581 -6.51827919 5.53415961 -4.59765625 3.5546875 C-3.10228292 2.32320358 -1.5537076 1.1570163 0 0 Z " fill="#253042" transform="translate(354,64)"/>
<path d="M0 0 C0.66 0 1.32 0 2 0 C1.74412595 1.77305664 1.46972261 3.54344608 1.1875 5.3125 C1.03667969 6.29863281 0.88585937 7.28476562 0.73046875 8.30078125 C-0.03436705 11.12699269 -0.75258762 12.1959128 -3 14 C-2.58846263 9.02906176 -2.20399168 4.55491614 0 0 Z " fill="#156E3E" transform="translate(3,44)"/>
<path d="M0 0 C3.63195496 1.21065165 4.42896192 2.53691126 6.6875 5.5625 C7.31011719 6.38878906 7.93273437 7.21507812 8.57421875 8.06640625 C9.04472656 8.70449219 9.51523438 9.34257812 10 10 C9.67 10.66 9.34 11.32 9 12 C7.49405319 10.38050958 5.99539332 8.75424026 4.5 7.125 C3.6646875 6.22007812 2.829375 5.31515625 1.96875 4.3828125 C0 2 0 2 0 0 Z " fill="#1C7744" transform="translate(221,0)"/>
<path d="M0 0 C5.28 0 10.56 0 16 0 C16.33 0.99 16.66 1.98 17 3 C16.46890625 2.83628906 15.9378125 2.67257813 15.390625 2.50390625 C12.46123236 1.88643623 9.74177064 1.90498075 6.75 1.9375 C5.67234375 1.94652344 4.5946875 1.95554688 3.484375 1.96484375 C2.25460937 1.98224609 2.25460937 1.98224609 1 2 C0.67 1.34 0.34 0.68 0 0 Z " fill="#313A4A" transform="translate(278,38)"/>
<path d="M0 0 C0.33 0.66 0.66 1.32 1 2 C0.67 2.66 0.34 3.32 0 4 C-0.66 4 -1.32 4 -2 4 C-1.34 5.65 -0.68 7.3 0 9 C-0.66 9 -1.32 9 -2 9 C-2.66 7.02 -3.32 5.04 -4 3 C-2.68 2.01 -1.36 1.02 0 0 Z " fill="#272F43" transform="translate(352,41)"/>
<path d="M0 0 C0.99 0.33 1.98 0.66 3 1 C1.02 3.97 1.02 3.97 -1 7 C-1.66 6.67 -2.32 6.34 -3 6 C-1.125 1.125 -1.125 1.125 0 0 Z " fill="#126939" transform="translate(192,38)"/>
</svg>
